<?xml version="1.0" encoding="UTF-8" standalone="no"?>
<!-- Created with Inkscape (http://www.inkscape.org/) -->

<svg
   width="204mm"
   height="152.00002mm"
   viewBox="0 0 204 152.00001"
   version="1.1"
   id="svg1"
   xml:space="preserve"
   xmlns="http://www.w3.org/2000/svg"
   xmlns:svg="http://www.w3.org/2000/svg"><defs
     id="defs1" /><g
     id="layer1"><g
       id="g4"><ellipse
         style="fill:#000000;stroke-width:0.236787"
         id="path1"
         cx="102.91978"
         cy="16.171087"
         rx="7.7790952"
         ry="7.8733873" /><ellipse
         style="fill:#000000;stroke-width:0.240001"
         id="path2"
         cx="84.061378"
         cy="48.418972"
         rx="7.8733873"
         ry="7.7790952" /><ellipse
         style="fill:#000000;stroke-width:0.231509"
         id="path3"
         cx="120.50526"
         cy="48.560406"
         rx="7.5433645"
         ry="7.6376572" /><path
         style="fill:#000000;stroke-width:0.264583"
         d="m 95.140689,16.50111 c 0,0 -7.449074,2.357302 -12.163676,10.749296 -4.714603,8.391993 -1.320089,16.12394 -1.320089,16.12394 v 0 l 2.3573,-1.225796 c 0,0 -3.394514,-5.563232 0.565754,-13.483764 3.960264,-7.920533 11.315046,-10.08925 11.315046,-10.08925 z"
         id="path4" /><path
         style="fill:#000000;stroke-width:0.264583"
         d="m 123.60488,43.115526 c 0,0 2.42254,-7.428109 -1.653,-16.148376 -4.07555,-8.720258 -12.33773,-10.464449 -12.33773,-10.464449 v 0 l -0.3766,2.630135 c 0,0 6.4993,0.481023 10.63098,8.313509 4.13168,7.832478 1.61076,15.074101 1.61076,15.074101 z"
         id="path4-2" /><path
         style="fill:#000000;stroke-width:0.264583"
         d="m 87.232755,53.504484 c 0,0 5.534624,5.51484 15.155605,5.814656 9.62097,0.299808 14.90702,-6.285279 14.90702,-6.285279 v 0 l -2.1769,-1.523334 c 0,0 -3.36312,5.582266 -12.21726,5.733296 -8.854127,0.151037 -14.177937,-5.367402 -14.177937,-5.367402 z"
         id="path4-3" /></g><path
       style="fill:#000000;stroke-width:0.264583"
       d="M 50.540544,70.247583 V 109.1902 l 26.213191,0.0943 -0.188582,-7.26049 H 59.403998 l -0.09429,-31.587842 z"
       id="path5" /><g
       id="g10"><path
         style="fill:#000000;stroke-width:0.264583"
         d="M 92.594802,70.247583 77.696657,109.2845 h 9.24062 l 9.900669,-28.476205 10.560704,28.381905 8.95775,0.0943 -15.08673,-38.942625 z"
         id="path9" /><path
         style="fill:#000000;stroke-width:0.264583"
         d="m 91.840467,94.480643 10.843583,0.282877 2.54589,7.1662 H 89.011703 Z"
         id="path10" /></g><path
       style="fill:#000000;stroke-width:0.264583"
       d="m 147.47278,81.091171 c 0,0 -3.20593,-4.431726 -10.56071,-3.865975 -7.35478,0.565753 -9.71208,9.146331 -9.71208,9.146331 0,0 -1.32009,4.903187 0.84863,8.957744 2.16871,4.054559 4.80889,5.563229 4.80889,5.563229 0,0 2.4516,2.82876 8.86346,1.13151 6.41185,-1.69726 5.8461,-4.337437 5.8461,-4.337437 l 6.12899,5.280357 c 0,0 -4.71461,9.05204 -20.46138,6.22327 -15.74678,-2.82876 -14.80385,-21.121416 -14.80385,-21.121416 0,0 -1.58662,-13.719363 15.3696,-18.198367 9.99496,-2.640179 19.32987,5.468937 19.32987,5.468937 z"
       id="path11" /><text
       xml:space="preserve"
       style="font-size:9.57019px;text-align:center;writing-mode:lr-tb;direction:ltr;text-anchor:middle;fill:#000000;stroke-width:0.797516"
       x="103.85767"
       y="123.89791"
       id="text12"
       transform="scale(0.97592962,1.0246641)"><tspan
         id="tspan12"
         style="font-style:normal;font-variant:normal;font-weight:normal;font-stretch:normal;font-family:Sans;-inkscape-font-specification:Sans;text-align:center;text-anchor:middle;stroke-width:0.797516"
         x="103.85767"
         y="123.89791">LOGISTÍCA QUE IMPULSA</tspan><tspan
         style="font-style:normal;font-variant:normal;font-weight:normal;font-stretch:normal;font-family:Sans;-inkscape-font-specification:Sans;text-align:center;text-anchor:middle;stroke-width:0.797516"
         x="103.85767"
         y="135.86066"
         id="tspan13">TU NEGOCIO</tspan></text></g></svg>
