<?xml version="1.0" encoding="UTF-8" standalone="no"?>
<!-- Created with Inkscape (http://www.inkscape.org/) -->

<svg
   width="51.860626mm"
   height="51.031376mm"
   viewBox="0 0 51.860626 51.031376"
   version="1.1"
   id="svg1"
   xml:space="preserve"
   xmlns="http://www.w3.org/2000/svg"
   xmlns:svg="http://www.w3.org/2000/svg"><defs
     id="defs1" /><g
     id="layer1"
     transform="translate(-76.187997,-8.2977001)"><g
       id="g4"><ellipse
         style="fill:#000000;stroke-width:0.236787"
         id="path1"
         cx="102.91978"
         cy="16.171087"
         rx="7.7790952"
         ry="7.8733873" /><ellipse
         style="fill:#000000;stroke-width:0.240001"
         id="path2"
         cx="84.061378"
         cy="48.418972"
         rx="7.8733873"
         ry="7.7790952" /><ellipse
         style="fill:#000000;stroke-width:0.231509"
         id="path3"
         cx="120.50526"
         cy="48.560406"
         rx="7.5433645"
         ry="7.6376572" /><path
         style="fill:#000000;stroke-width:0.264583"
         d="m 95.140689,16.50111 c 0,0 -7.449074,2.357302 -12.163676,10.749296 -4.714603,8.391993 -1.320089,16.12394 -1.320089,16.12394 v 0 l 2.3573,-1.225796 c 0,0 -3.394514,-5.563232 0.565754,-13.483764 3.960264,-7.920533 11.315046,-10.08925 11.315046,-10.08925 z"
         id="path4" /><path
         style="fill:#000000;stroke-width:0.264583"
         d="m 123.60488,43.115526 c 0,0 2.42254,-7.428109 -1.653,-16.148376 -4.07555,-8.720258 -12.33773,-10.464449 -12.33773,-10.464449 v 0 l -0.3766,2.630135 c 0,0 6.4993,0.481023 10.63098,8.313509 4.13168,7.832478 1.61076,15.074101 1.61076,15.074101 z"
         id="path4-2" /><path
         style="fill:#000000;stroke-width:0.264583"
         d="m 87.232755,53.504484 c 0,0 5.534624,5.51484 15.155605,5.814656 9.62097,0.299808 14.90702,-6.285279 14.90702,-6.285279 v 0 l -2.1769,-1.523334 c 0,0 -3.36312,5.582266 -12.21726,5.733296 -8.854127,0.151037 -14.177937,-5.367402 -14.177937,-5.367402 z"
         id="path4-3" /></g></g></svg>
